# xmcd
#
# Track frame offsets:
#	150
#	17039
#	34145
#	49035
#	60219
#	74303
#	87663
#	98753
#	111525
#	126089
#	138156
#	151913
#	163863
#	176961
#	193533
#	207073
#	224093
#
# Disc length: 3202 seconds
#
# Revision: 0
# Processed by: cddbd v1.5.2PL0 Copyright (c) Steve Scherf et al.
# Submitted via: EasyCDDAExtractor 16.0.6.1
#
DISCID=f60c8011
DTITLE=Συλλογικός δίσκος - Τα μπουζούκια πάνε παραλία
DYEAR=2010
DGENRE=Ποικίλη
TTITLE0=Καρελάς Λάμπρος-Αρβανιτάκη Ελευθερία - Οι γλάροι [Νίκος Μεϊμάρης-Χαρ. 
TTITLE0=Βασιλειάδης]
TTITLE1=Παπαδόπουλος Θοδωρής - Απόψε στις ακρογιαλιές [Βασίλης Τσιτσάνης]
TTITLE2=Αλεξάνδρα-Τσιτσάνης Βασίλης - Ακρογιαλιές δειλινά [Βαίλης Τσιτσάνης]
TTITLE3=Πάνου Πόλυ - Κάτω στο Πασαλιμάνι [Πάνος Πετσάς]
TTITLE4=Ιακωβίδης Αγάθωνας - Το καλοκαίρι τώρα [Παν. Τούντας]
TTITLE5=Πάππος Μανώλης - Στο βαποράκι [Γιώργος Ζήκας]
TTITLE6=Μητρέντζης Χρήστος-χορωδία - Για μπάνιο πάω [Απόστολος Καλδάρας]
TTITLE7=Μαριώ-Βόμβολος Κ.-Μητρέντζης Χ.-ΡούσσοςΔ.-ΠαπαφιλίππουΦ. - Ο αχινός [Π
TTITLE7=Μπιλίκας/Ι. Αντωνόπουλος-Χαρ. Βασιλειάδης]
TTITLE8=Κοντογιάννης Δημήτρης - Ο ψαράς [Γιώργος Μητσάκης]
TTITLE9=Γκόγκος Δημήτρης ή Μπαγιαντέρας - Ξεκινά μιά ψαροπούλα [Δημ. Γκόγκος Μ
TTITLE9=παγιαντέρας]
TTITLE10=Μπέλλου Σωτηρία - Ο Ζέππος [Γιάννης Παπαϊωάννου]
TTITLE11=Χατζηαντωνίου Γιώργος - Στο Φάληρο που πλένεσαι [Μάρκος Βαμβακάρης]
TTITLE12=Πουλόπουλος Γιάννης - Ο ναύτης [Γιώργος Μητσάκης]
TTITLE13=Γλυκερία - Να πάμε για τη Βούλα [Βασίλης Τσιτσάνης]
TTITLE14=Γκολές Μπάμπης - Σ' ένα απόκρημνο ακρογιάλι [Σ. Χρυσίνης-Χαρ. Βασιλει
TTITLE14=άδης]
TTITLE15=Τζώρτζης Γιώργος - Ο κάβος [Βαγγέλης Καρακάκης]
TTITLE16=Μαργαρίτης Γιώργος - Πετονιές, ένα καλάμι και δολώματα [Π. Βαγιόπουλο
TTITLE16=ς-Γ. Λογοθέτης]
EXTD=
EXTT0=
EXTT1=
EXTT2=
EXTT3=
EXTT4=
EXTT5=
EXTT6=
EXTT7=
EXTT8=
EXTT9=
EXTT10=
EXTT11=
EXTT12=
EXTT13=
EXTT14=
EXTT15=
EXTT16=
PLAYORDER=
